<svg xmlns="http://www.w3.org/2000/svg" data-name="Слой 1" viewBox="0 0 100 125" x="0px" y="0px"><title>19-01-01-01-01-01-01-01-01-01-01-01-01-01-01-01-01-01-01-01-01-01</title><g><path d="M66.50627,78.41c-10.33411-.41471-18.70326-5.43447-27.06709-10.277a10.50063,10.50063,0,0,0-9.533-1.02917c-6.39237,2.36755-13.03711,4.03875-18.176,9.1245-2.876,2.84637-5.19937,1.9024-6.59989-1.99764a18.934,18.934,0,0,1-1.32959-4.53928c-0.66528-7.42852-.689-7.11248,4.94707-10.7751q2.874-1.86773,5.70208-3.80612a28.10027,28.10027,0,0,1,15.70806-5.34126c4.50837-.0889,8.74742.17049,12.70452,2.49937,3.616,2.12823,7.44774,3.939,10.86568,6.34306,4.59842,3.23433,9.71619,3.24216,14.6943,2.4416,7.4973-1.20554,14.63908-3.52641,20.18552-9.36385,2.94044-3.09462,6.45024-1.80223,7.3494,2.34226,1.50542,6.93891.00723,10.85117-6.1118,14.79612A97.17733,97.17733,0,0,1,76.617,76.45359C73.5528,77.80154,69.89718,77.80473,66.50627,78.41Z"/><path d="M69.5606,51.58719c-9.268-.40362-15.71128-4.19236-21.74707-8.91155-0.8272-.64668-1.52437-1.45667-2.32123-2.14508-4.86467-4.20268-10.39515-5.07791-16.20783-2.59382-4.9862,2.1308-9.79823,4.68839-14.6046,7.21446-3.16722,1.66447-5.71517.72791-6.77962-2.776-1.57191-5.17535-.15849-9.48174,4.44125-12.35835a60.17521,60.17521,0,0,1,23.18013-8.24238,16.991,16.991,0,0,1,13.32471,3.83849c3.1605,2.51462,6.33293,5.0179,9.57287,7.42849,7.91913,5.89224,17.33964,4.96273,24.06156-2.31075a33.386,33.386,0,0,1,3.23673-3.45259c2.1869-1.77236,4.18436-1.375,5.82054.92592,3.66532,5.154,3.081,10.292-2.09385,14.0601a90.8528,90.8528,0,0,1-12.94337,7.99511C74.10649,51.44858,71.06245,51.32966,69.5606,51.58719Z"/></g><text x="0" y="115" fill="#000000" font-size="5px" font-weight="bold" font-family="'Helvetica Neue', Helvetica, Arial-Unicode, Arial, Sans-serif">Created by Olga</text><text x="0" y="120" fill="#000000" font-size="5px" font-weight="bold" font-family="'Helvetica Neue', Helvetica, Arial-Unicode, Arial, Sans-serif">from the Noun Project</text></svg>