<svg xmlns="http://www.w3.org/2000/svg" xmlns:xlink="http://www.w3.org/1999/xlink" version="1.1" x="0px" y="0px" viewBox="0 0 98 122.5" style="enable-background:new 0 0 98 98;" xml:space="preserve"><title>02</title><g><path d="M89.1,73.8c-1.3-0.9-2.4-2-3.3-3.2c-2.2-2.5-5-5.6-10.2-5.6s-7.9,3-10.2,5.7S61.6,75,58.2,75s-5.1-1.9-7.2-4.3   S46.1,65,40.8,65s-7.9,3-10.2,5.7S26.8,75,23.4,75s-5.1-1.9-7.2-4.3c-1.4-1.9-3.2-3.5-5.3-4.6c-1-0.5-2.2-0.1-2.7,0.9   s-0.1,2.2,0.9,2.7l0,0c1.6,0.9,3,2.2,4.1,3.6c2.3,2.7,5,5.7,10.2,5.7s7.9-3,10.2-5.7s3.8-4.3,7.2-4.3s5.1,1.9,7.2,4.3   S52.9,79,58.2,79s7.9-3,10.2-5.7s3.8-4.3,7.2-4.3s5.1,1.9,7.2,4.3c1.2,1.5,2.5,2.8,4.1,3.9c0.9,0.6,2.2,0.3,2.8-0.6   C90.3,75.7,90,74.4,89.1,73.8L89.1,73.8z"/><path d="M89.1,58.8c-1.3-0.9-2.4-2-3.3-3.2c-2.2-2.5-5-5.6-10.2-5.6s-7.9,3-10.2,5.7S61.6,60,58.2,60   s-5.1-1.9-7.2-4.3S46.1,50,40.8,50s-7.9,3-10.2,5.7S26.8,60,23.4,60s-5.1-1.9-7.2-4.3c-1.4-1.9-3.2-3.5-5.3-4.6   c-1-0.5-2.2-0.1-2.7,0.9s-0.1,2.2,0.9,2.7c1.6,0.9,3,2.2,4.1,3.6c2.3,2.7,5,5.7,10.2,5.7s7.9-3,10.2-5.7s3.8-4.3,7.2-4.3   s5.1,1.9,7.2,4.3S52.9,64,58.2,64s7.9-3,10.2-5.7s3.8-4.3,7.2-4.3s5.1,1.9,7.2,4.3c1.2,1.5,2.5,2.8,4.1,3.9   c0.9,0.6,2.2,0.3,2.8-0.6C90.3,60.7,90,59.4,89.1,58.8L89.1,58.8z"/><path d="M89.1,42.8c-1.3-0.9-2.4-2-3.3-3.2c-2.2-2.5-5-5.6-10.2-5.6s-7.9,3-10.2,5.7S61.6,44,58.2,44   s-5.1-1.9-7.2-4.3S46.1,34,40.8,34s-7.9,3-10.2,5.7S26.8,44,23.4,44s-5.1-1.9-7.2-4.3c-1.4-1.9-3.2-3.5-5.3-4.6   c-1-0.5-2.2-0.1-2.7,0.9s-0.1,2.2,0.9,2.7c1.6,0.9,3,2.2,4.1,3.6c2.3,2.7,5,5.7,10.2,5.7s7.9-3,10.2-5.7s3.8-4.3,7.2-4.3   s5.1,1.9,7.2,4.3S52.9,48,58.2,48s7.9-3,10.2-5.7s3.8-4.3,7.2-4.3s5.1,1.9,7.2,4.3c1.2,1.5,2.5,2.8,4.1,3.9   c0.9,0.6,2.2,0.3,2.8-0.6C90.3,44.7,90,43.4,89.1,42.8z"/><path d="M89.1,27.8c-1.3-0.9-2.4-2-3.3-3.2c-2.2-2.5-5-5.6-10.2-5.6s-7.9,3-10.2,5.7S61.6,29,58.2,29   s-5.1-1.9-7.2-4.3S46.1,19,40.8,19s-7.9,3-10.2,5.7S26.8,29,23.4,29s-5.1-1.9-7.2-4.3c-1.4-1.9-3.2-3.5-5.3-4.6   c-1-0.5-2.2-0.1-2.7,0.9s-0.1,2.2,0.9,2.7c1.6,0.9,3,2.2,4.1,3.6c2.3,2.7,5,5.7,10.2,5.7s7.9-3,10.2-5.7s3.8-4.3,7.2-4.3   s5.1,1.9,7.2,4.3S52.9,33,58.2,33s7.9-3,10.2-5.7s3.8-4.3,7.2-4.3s5.1,1.9,7.2,4.3c1.2,1.5,2.5,2.8,4.1,3.9   c0.9,0.6,2.2,0.3,2.8-0.6C90.3,29.7,90,28.4,89.1,27.8z"/></g><text x="0" y="113" fill="#000000" font-size="5px" font-weight="bold" font-family="'Helvetica Neue', Helvetica, Arial-Unicode, Arial, Sans-serif">Created by Olivia</text><text x="0" y="118" fill="#000000" font-size="5px" font-weight="bold" font-family="'Helvetica Neue', Helvetica, Arial-Unicode, Arial, Sans-serif">from the Noun Project</text></svg>